<svg width="41" height="41" viewBox="0 0 41 41" fill="none" xmlns="http://www.w3.org/2000/svg">
<path d="M38.5625 38.5625H23.3125V23.3125H38.5625V38.5625Z" stroke="#EE3F46" stroke-width="3.8125" stroke-linecap="round" stroke-linejoin="round"/>
<path d="M26.1719 2.34375C26.1719 2.87015 25.7451 3.29688 25.2188 3.29688C24.6924 3.29688 24.2656 2.87015 24.2656 2.34375C24.2656 1.81735 24.6924 1.39062 25.2188 1.39062C25.7451 1.39062 26.1719 1.81735 26.1719 2.34375ZM37.6094 2.34375C37.6094 2.87015 37.1826 3.29688 36.6562 3.29688C36.1299 3.29688 35.7031 2.87015 35.7031 2.34375C35.7031 1.81735 36.1299 1.39062 36.6562 1.39062C37.1826 1.39062 37.6094 1.81735 37.6094 2.34375ZM14.7344 2.34375C14.7344 2.87015 14.3076 3.29688 13.7812 3.29688C13.2549 3.29688 12.8281 2.87015 12.8281 2.34375C12.8281 1.81735 13.2549 1.39062 13.7812 1.39062C14.3076 1.39062 14.7344 1.81735 14.7344 2.34375ZM3.29688 2.34375C3.29688 2.87015 2.87015 3.29688 2.34375 3.29688C1.81735 3.29688 1.39062 2.87015 1.39062 2.34375C1.39062 1.81735 1.81735 1.39062 2.34375 1.39062C2.87015 1.39062 3.29688 1.81735 3.29688 2.34375ZM26.1719 13.7812C26.1719 14.3076 25.7451 14.7344 25.2188 14.7344C24.6924 14.7344 24.2656 14.3076 24.2656 13.7812C24.2656 13.2549 24.6924 12.8281 25.2188 12.8281C25.7451 12.8281 26.1719 13.2549 26.1719 13.7812ZM14.7344 13.7812C14.7344 14.3076 14.3076 14.7344 13.7812 14.7344C13.2549 14.7344 12.8281 14.3076 12.8281 13.7812C12.8281 13.2549 13.2549 12.8281 13.7812 12.8281C14.3076 12.8281 14.7344 13.2549 14.7344 13.7812ZM3.29688 13.7812C3.29688 14.3076 2.87015 14.7344 2.34375 14.7344C1.81735 14.7344 1.39062 14.3076 1.39062 13.7812C1.39062 13.2549 1.81735 12.8281 2.34375 12.8281C2.87015 12.8281 3.29688 13.2549 3.29688 13.7812ZM14.7344 25.2188C14.7344 25.7451 14.3076 26.1719 13.7812 26.1719C13.2549 26.1719 12.8281 25.7451 12.8281 25.2188C12.8281 24.6924 13.2549 24.2656 13.7812 24.2656C14.3076 24.2656 14.7344 24.6924 14.7344 25.2188ZM3.29688 25.2188C3.29688 25.7451 2.87015 26.1719 2.34375 26.1719C1.81735 26.1719 1.39062 25.7451 1.39062 25.2188C1.39062 24.6924 1.81735 24.2656 2.34375 24.2656C2.87015 24.2656 3.29688 24.6924 3.29688 25.2188ZM3.29688 36.6562C3.29688 37.1826 2.87015 37.6094 2.34375 37.6094C1.81735 37.6094 1.39062 37.1826 1.39062 36.6562C1.39062 36.1299 1.81735 35.7031 2.34375 35.7031C2.87015 35.7031 3.29688 36.1299 3.29688 36.6562ZM14.7344 36.6562C14.7344 37.1826 14.3076 37.6094 13.7812 37.6094C13.2549 37.6094 12.8281 37.1826 12.8281 36.6562C12.8281 36.1299 13.2549 35.7031 13.7812 35.7031C14.3076 35.7031 14.7344 36.1299 14.7344 36.6562ZM37.6094 13.7812C37.6094 14.3076 37.1826 14.7344 36.6562 14.7344C36.1299 14.7344 35.7031 14.3076 35.7031 13.7812C35.7031 13.2549 36.1299 12.8281 36.6562 12.8281C37.1826 12.8281 37.6094 13.2549 37.6094 13.7812Z" stroke="#10293C" stroke-width="1.90625"/>
</svg>
