<svg width="59" height="46" viewBox="0 0 59 46" fill="none" xmlns="http://www.w3.org/2000/svg">
<path d="M37.9512 39.8301L52.1298 25.4234M37.9512 39.8301L41.5033 43.4393C42.1572 44.1037 43.2174 44.1037 43.8714 43.4393C47.8181 39.429 51.765 35.4187 55.7118 31.4084C56.3657 30.744 56.3358 29.6971 55.6819 29.0327C53.7085 27.0275 54.1032 27.4286 52.1298 25.4234M37.9512 39.8301L23.8963 42.0624C23.1494 39.2302 23.4277 36.607 25.7958 35.4039L29.6327 33.8448L15.4246 19.408C15.4246 19.408 12.8332 16.96 15.3482 14.4771C17.7855 12.0707 20.1608 14.5957 20.1608 14.5957L27.265 21.8142C27.265 21.8142 36.508 16.5969 37.9213 15.7987C38.6823 15.3689 40.881 13.9939 42.6574 15.7987L52.1298 25.4234" stroke="#10293C" stroke-width="4" stroke-linecap="round" stroke-linejoin="round"/>
<path d="M8.53125 7.71875L2.8125 2M18.0625 5.8125V2M6.625 17.25H2.8125" stroke="#EE3F46" stroke-width="4" stroke-linecap="round" stroke-linejoin="round"/>
</svg>
